<svg width="201.718" height="50.791" viewBox="0 0 201.718 50.791" xmlns="http://www.w3.org/2000/svg" xmlns:xlink="http://www.w3.org/1999/xlink" overflow="hidden"><g id="Group_1441" transform="translate(-140 -12)"><g id="Group_1" transform="translate(140 12)"><path d="M472.617 399.069 459.417 399.069C456.294 399.061 453.766 396.527 453.767 393.404L453.767 387.814C453.767 387.541 453.547 387.318 453.274 387.314 453.154 387.314 453.039 387.36 452.952 387.442 452.757 387.622 452.454 387.61 452.274 387.415 452.272 387.413 452.271 387.412 452.269 387.41L450.129 385.057C449.94 384.85 449.954 384.529 450.16 384.339L465.69 370.13C465.874 369.961 466.158 369.961 466.342 370.13L481.871 384.339C482.077 384.529 482.091 384.849 481.903 385.057L479.762 387.41C479.585 387.607 479.281 387.624 479.084 387.447 479.082 387.445 479.081 387.444 479.079 387.442 478.992 387.36 478.877 387.314 478.757 387.314 478.484 387.318 478.264 387.541 478.264 387.814L478.264 393.404C478.265 396.526 475.739 399.06 472.617 399.069ZM466.017 375.657C465.896 375.657 465.78 375.703 465.691 375.784L458.1 382.73C457.995 382.827 457.936 382.963 457.936 383.105L457.936 393.405C457.936 394.225 458.599 394.89 459.419 394.892L472.619 394.892C473.44 394.889 474.103 394.222 474.1 393.401 474.1 393.401 474.1 393.4 474.1 393.4L474.1 383.1 466.346 375.778C466.256 375.698 466.139 375.655 466.018 375.657Z" id="Subtraction_17" fill="#2B879E" transform="translate(-429.844 -348.278)"/><path d="M183.507 114.18C183.508 118.938 187.361 122.798 192.119 122.807 193.24 122.807 194.149 123.716 194.149 124.837 194.149 125.958 193.24 126.867 192.119 126.867 185.112 126.88 179.421 121.209 179.408 114.202 179.395 107.195 185.066 101.504 192.073 101.491 199.08 101.478 204.771 107.149 204.784 114.156 204.784 114.164 204.784 114.171 204.784 114.179 204.809 115.298 203.922 116.226 202.803 116.251 201.683 116.275 200.756 115.388 200.731 114.269 200.73 114.239 200.73 114.209 200.731 114.179 200.731 109.423 196.875 105.567 192.119 105.567 187.363 105.567 183.507 109.423 183.507 114.179Z" id="Path_3" fill="#9B9A9A" transform="translate(-171.944 -93.844)"/><path d="M194.409 141.9 194.409 145.853C194.415 146.109 194.213 146.322 193.956 146.328 193.848 146.331 193.742 146.295 193.657 146.228L193.166 145.828C189.795 143.009 186.652 139.928 183.766 136.614 177.372 129.251 174.13 122.642 174.13 116.972L174.13 116.409C174.13 105.209 183.209 96.1305 194.409 96.1305 205.608 96.1305 214.687 105.209 214.687 116.409L214.687 116.972C214.687 117.122 214.687 117.272 214.68 117.423 214.681 117.679 214.475 117.888 214.219 117.89 214.103 117.89 213.991 117.848 213.905 117.77L210.781 114.913C210.696 114.834 210.643 114.728 210.631 114.613 209.665 105.652 201.618 99.1697 192.657 100.135 184.348 101.03 178.059 108.057 178.085 116.413L178.085 116.976C178.085 126.433 190.079 137.857 194.246 141.541 194.349 141.632 194.408 141.763 194.409 141.9Z" id="Path_4" fill="#2B879E" transform="translate(-174.131 -96.071)"/><path d="M198.082 127.9 203.356 127.9C203.627 127.893 203.844 127.672 203.844 127.4L203.844 122.13C203.844 121.858 203.627 121.637 203.356 121.63L198.082 121.63C197.81 121.635 197.592 121.858 197.592 122.13L197.592 127.4C197.592 127.672 197.81 127.895 198.082 127.9Z" id="Path_5" fill="#2B879E" transform="translate(-164.492 -85.571)"/><path d="M4.451 0C6.91639-0.0071797 8.9208 1.98559 8.92798 4.45098 8.93516 6.91637 6.94239 8.92078 4.477 8.92796 2.01161 8.93514 0.00719887 6.94237 1.91658e-05 4.47698 6.56468e-06 4.47265 2.54941e-07 4.46833 2.36592e-07 4.464-0.00331598 2.0023 1.9893 0.00386338 4.451 2.25067e-07Z" id="Path_31" fill="#2B879E" transform="translate(15.827 15.872)"/></g><g id="Group_1440" transform="translate(-2 -0.676)"><path d="M-72.36 0-72.36-19.116-59.508-19.116-59.508-15.2-67.908-15.2-67.908-11.609-59.97-11.609-59.97-7.909-67.9-7.909-67.9-3.94-59.017-3.94-59.017 0ZM-48.276-5.859-48.843-5.859C-49.329-5.859-49.8197-5.83667-50.315-5.792-50.7642-5.75585-51.2079-5.66965-51.638-5.535-51.9954-5.42591-52.3232-5.2364-52.596-4.981-52.8515-4.72931-52.9888-4.38136-52.974-4.023-52.9803-3.79439-52.9191-3.569-52.798-3.375-52.6849-3.19867-52.5326-3.05083-52.353-2.943-52.1611-2.83073-51.9509-2.75321-51.732-2.714-51.5097-2.66998-51.2836-2.64721-51.057-2.646-50.295-2.59411-49.5459-2.86313-48.991-3.388-48.494-3.93657-48.2367-4.66085-48.276-5.4ZM-56.4-11.61C-55.608-12.3656-54.665-12.945-53.633-13.31-52.5984-13.6848-51.5064-13.8767-50.406-13.877-49.4309-13.9009-48.4587-13.7593-47.531-13.458-46.7909-13.2061-46.1339-12.7566-45.631-12.158-45.1141-11.5113-44.7491-10.7567-44.563-9.95-44.3216-8.91004-44.2085-7.84445-44.226-6.777L-44.226 0-48.276 0-48.276-1.431-48.357-1.431C-48.727-0.847185-49.2694-0.392875-49.909-0.131-50.6201 0.178751-51.3884 0.335151-52.164 0.328-52.7289 0.323541-53.2911 0.249654-53.838 0.108-54.4016-0.029997-54.9363-0.267012-55.417-0.592-55.9046-0.927877-56.307-1.37305-56.592-1.892-56.9163-2.50741-57.0745-3.19676-57.051-3.892-57.0906-4.74794-56.8048-5.58715-56.251-6.241-55.6868-6.85586-54.9835-7.32666-54.2-7.614-53.3014-7.95245-52.3619-8.17035-51.406-8.262-50.4095-8.36847-49.4081-8.42254-48.406-8.424L-48.406-8.64C-48.3636-9.21975-48.6295-9.77901-49.106-10.112-49.6211-10.4402-50.2236-10.6047-50.834-10.584-51.4636-10.5857-52.0859-10.4492-52.657-10.184-53.2041-9.93921-53.7101-9.61134-54.157-9.212ZM-33.018-9.477C-33.3933-9.82947-33.8215-10.121-34.287-10.341-34.7666-10.5737-35.293-10.6937-35.826-10.692-36.2215-10.696-36.6131-10.613-36.973-10.449-37.3092-10.311-37.5208-9.97485-37.5-9.612-37.5072-9.2434-37.2713-8.9139-36.92-8.802-36.3095-8.57397-35.6823-8.39344-35.044-8.262-34.5241-8.1493-34.0138-7.99582-33.518-7.803-33.0184-7.61241-32.5499-7.34852-32.128-7.02-31.7154-6.69817-31.3747-6.29348-31.128-5.832-30.8644-5.31426-30.7344-4.73879-30.75-4.158-30.7261-3.40967-30.9032-2.66862-31.263-2.012-31.5915-1.44117-32.0495-0.95547-32.6-0.594-33.1658-0.226848-33.7916 0.0381707-34.449 0.189-35.1209 0.349527-35.8092 0.431079-36.5 0.432-37.5968 0.431971-38.6862 0.253992-39.726-0.0950001-40.7102-0.405426-41.6104-0.936608-42.358-1.648L-39.874-4.267C-39.4585-3.82047-38.9642-3.45435-38.416-3.187-37.8465-2.90055-37.2175-2.75254-36.58-2.755-36.2097-2.75772-35.8449-2.84566-35.514-3.012-35.169-3.17406-34.9595-3.53186-34.987-3.912-34.9854-4.32479-35.2455-4.69326-35.635-4.83-36.2897-5.09816-36.9675-5.30602-37.66-5.451-38.1362-5.56211-38.604-5.70647-39.06-5.883-39.5157-6.0557-39.94-6.30197-40.316-6.612-40.6892-6.92566-40.9953-7.31134-41.216-7.746-41.4621-8.24974-41.5825-8.80558-41.567-9.366-41.5892-10.0884-41.4117-10.803-41.054-11.431-40.7222-11.9875-40.2702-12.4628-39.731-12.822-39.1802-13.188-38.5717-13.4584-37.931-13.622-37.2923-13.7908-36.6346-13.8771-35.974-13.879-34.9695-13.8795-33.9713-13.7198-33.017-13.406-32.1068-13.122-31.2717-12.6379-30.573-11.989ZM-20.598 2.023C-20.8419 2.67372-21.1431 3.30152-21.498 3.899-21.815 4.42732-22.2163 4.90023-22.686 5.299-23.1627 5.69584-23.7133 5.99426-24.306 6.177-25.0197 6.38901-25.7616 6.49019-26.506 6.477-26.9385 6.47787-27.3707 6.45216-27.8 6.4-28.1871 6.35623-28.5705 6.28403-28.947 6.184L-28.461 2.458C-28.2274 2.53418-27.9884 2.59268-27.746 2.633-27.51 2.67585-27.2708 2.6986-27.031 2.701-26.4925 2.75089-25.9568 2.58062-25.546 2.229-25.195 1.84144-24.9272 1.38608-24.759 0.891L-24.327-0.216-29.943-13.446-25.029-13.446-22.029-4.806-21.948-4.806-19.275-13.446-14.575-13.446ZM4.347 0 0.216-7.587-1.35-7.587-1.35 0-5.886 0-5.886-19.116 1.4-19.116C2.3032-19.1178 3.20399-19.0229 4.087-18.833 4.92192-18.6597 5.71805-18.3351 6.436-17.875 7.12899-17.4267 7.70057-16.8143 8.1-16.092 8.54028-15.2426 8.75416-14.2941 8.721-13.338 8.7596-12.1598 8.38735-11.0049 7.668-10.071 6.91449-9.15499 5.89585-8.49476 4.752-8.181L9.747 0ZM4.158-13.257C4.17565-13.6415 4.07703-14.0224 3.875-14.35 3.69106-14.6254 3.43977-14.8491 3.145-15 2.83124-15.1584 2.49328-15.2635 2.145-15.311 1.79238-15.3631 1.43644-15.3895 1.08-15.39L-1.377-15.39-1.377-10.935 0.81-10.935C1.19887-10.9357 1.58708-10.9671 1.971-11.029 2.3462-11.0856 2.71046-11.1996 3.051-11.367 3.37429-11.5264 3.65013-11.7677 3.851-12.067 4.07086-12.4237 4.17786-12.8385 4.158-13.257ZM20.709-8.262C20.7226-8.92661 20.4864-9.57214 20.047-10.071 19.5306-10.6055 18.8031-10.8826 18.062-10.827 17.6572-10.8325 17.2547-10.7647 16.874-10.627 16.5284-10.5003 16.2083-10.3127 15.929-10.073 15.662-9.84294 15.442-9.56349 15.281-9.25 15.1216-8.94441 15.0295-8.60819 15.011-8.264ZM24.786-6.562 24.786-6.022C24.7865-5.85063 24.7774-5.67937 24.759-5.509L15.012-5.509C15.0431-5.14546 15.1585-4.79417 15.349-4.483 15.54-4.17319 15.7872-3.90186 16.078-3.683 16.3809-3.45477 16.7185-3.27683 17.078-3.156 17.4476-3.02988 17.8355-2.96602 18.226-2.967 18.8432-2.94761 19.4556-3.08197 20.008-3.358 20.4765-3.60299 20.8839-3.95023 21.2-4.374L24.273-2.43C23.6439-1.51278 22.7807-0.780759 21.773-0.31 20.644 0.204761 19.4136 0.458708 18.173 0.433 17.1991 0.438526 16.2313 0.278584 15.311-0.0400001 14.4399-0.33796 13.6367-0.806021 12.948-1.417 12.2619-2.03552 11.7184-2.79572 11.355-3.645 10.9531-4.60162 10.7552-5.63156 10.774-6.669 10.7595-7.69143 10.9524-8.70619 11.341-9.652 11.6934-10.5054 12.2172-11.2773 12.88-11.92 13.5428-12.5498 14.3248-13.0407 15.18-13.364 16.0937-13.7118 17.0644-13.8858 18.042-13.877 18.9747-13.8875 19.9007-13.7177 20.769-13.377 21.5763-13.0576 22.3037-12.5651 22.9-11.934 23.5145-11.2695 23.9874-10.487 24.29-9.634 24.636-8.64711 24.8039-7.60662 24.786-6.561ZM35.316-5.862 34.749-5.862C34.263-5.862 33.7723-5.83967 33.277-5.795 32.8278-5.75885 32.3841-5.67265 31.954-5.538 31.5977-5.42748 31.2714-5.23696 31-4.981 30.7445-4.72931 30.6072-4.38136 30.622-4.023 30.6157-3.79439 30.6769-3.569 30.798-3.375 30.9111-3.19867 31.0634-3.05083 31.243-2.943 31.4349-2.83073 31.6451-2.75321 31.864-2.714 32.0863-2.66998 32.3124-2.64721 32.539-2.646 33.2994-2.59553 34.0463-2.86445 34.6-3.388 35.0973-3.93641 35.3551-4.6607 35.316-5.4ZM27.189-11.61C27.981-12.3656 28.924-12.945 29.956-13.31 30.9906-13.6848 32.0826-13.8767 33.183-13.877 34.1581-13.9009 35.1303-13.7593 36.058-13.458 36.7981-13.2061 37.4551-12.7566 37.958-12.158 38.4759-11.5116 38.842-10.757 39.029-9.95 39.2704-8.91004 39.3835-7.84445 39.366-6.777L39.366 0 35.316 0 35.316-1.431 35.235-1.431C34.865-0.847185 34.3226-0.392875 33.683-0.131 32.9719 0.178751 32.2036 0.335151 31.428 0.328 30.8631 0.323541 30.3009 0.249654 29.754 0.108 29.19-0.0298855 28.655-0.266904 28.174-0.592 27.687-0.927427 27.285-1.37188 27-1.89 26.6757-2.50541 26.5175-3.19476 26.541-3.89 26.5014-4.74594 26.7872-5.58515 27.341-6.239 27.9045-6.85432 28.607-7.3258 29.39-7.614 30.2889-7.95254 31.2288-8.17043 32.185-8.262 33.1815-8.36847 34.1829-8.42254 35.185-8.424L35.185-8.64C35.2274-9.21975 34.9615-9.77901 34.485-10.112 33.9699-10.4402 33.3674-10.6047 32.757-10.584 32.1274-10.5857 31.5051-10.4492 30.934-10.184 30.3869-9.93921 29.8809-9.61134 29.434-9.212ZM42.714 0 42.714-20.412 47.2-20.412 47.2 0ZM55.514-10.125 55.514-4.995C55.4776-4.4953 55.6055-3.9974 55.878-3.577 56.2168-3.22337 56.7015-3.04871 57.188-3.105 57.4183-3.10614 57.6483-3.12419 57.876-3.159 58.0846-3.18573 58.2888-3.24021 58.483-3.321L58.537-0.081C58.158 0.0442354 57.7694 0.138216 57.375 0.2 56.9127 0.280566 56.4443 0.321382 55.975 0.322 55.2029 0.343562 54.4329 0.229847 53.7-0.014 53.1351-0.207805 52.6288-0.542322 52.229-0.986 51.8512-1.42287 51.5776-1.93989 51.429-2.498 51.2601-3.13674 51.1784-3.79537 51.186-4.456L51.186-10.126 49.026-10.126 49.026-13.447 51.159-13.447 51.159-16.984 55.506-16.984 55.506-13.447 58.665-13.447 58.665-10.126ZM68.337 2.025C68.0931 2.67573 67.7919 3.30352 67.437 3.901 67.12 4.42932 66.7187 4.90223 66.249 5.301 65.7723 5.69784 65.2217 5.99626 64.629 6.179 63.9153 6.39101 63.1734 6.49219 62.429 6.479 61.9984 6.47897 61.5683 6.45258 61.141 6.4 60.7539 6.35623 60.3705 6.28403 59.994 6.184L60.48 2.458C60.7136 2.53418 60.9526 2.59268 61.195 2.633 61.431 2.67585 61.6702 2.6986 61.91 2.701 62.4503 2.75201 62.9881 2.58128 63.4 2.228 63.748 1.84003 64.0131 1.38506 64.179 0.891L64.611-0.216 58.995-13.446 63.909-13.446 66.909-4.806 66.99-4.806 69.663-13.446 74.363-13.446Z" id="Path_2085" fill="#2B879E" transform="translate(269.36 39.088)"/><path d="M-66.19-9.452C-66.414-9.77878-66.731-10.0307-67.1-10.175-67.4814-10.3283-67.889-10.406-68.3-10.404-68.5435-10.4047-68.7863-10.3762-69.023-10.319-69.247-10.266-69.4599-10.1739-69.652-10.047-69.8383-9.92339-69.9928-9.75757-70.103-9.563-70.2206-9.34701-70.2792-9.10385-70.273-8.858-70.2945-8.49527-70.1354-8.14534-69.848-7.923-69.5253-7.68651-69.1704-7.49759-68.794-7.362-68.3747-7.20333-67.9157-7.05033-67.417-6.903-66.9325-6.76197-66.4693-6.55611-66.04-6.291-65.617-6.02671-65.2571-5.6727-64.986-5.254-64.6796-4.73551-64.5318-4.13857-64.561-3.537-64.5475-2.95297-64.6697-2.37378-64.918-1.845-65.1436-1.37786-65.4718-0.967663-65.878-0.645-66.295-0.320067-66.7701-0.077729-67.278 0.0690003-67.8245 0.229636-68.3914 0.309811-68.961 0.307-69.697 0.308773-70.4277 0.181863-71.12-0.0679997-71.8146-0.321676-72.429-0.755915-72.9-1.326L-71.29-2.89C-71.0334-2.49679-70.6788-2.17728-70.261-1.963-69.8441-1.74378-69.38-1.6298-68.909-1.631-68.6563-1.63081-68.4048-1.66445-68.161-1.731-67.9193-1.79557-67.6896-1.89891-67.481-2.037-67.2796-2.17055-67.111-2.34799-66.988-2.556-66.8607-2.77537-66.7961-3.02544-66.801-3.279-66.7778-3.66635-66.9346-4.04275-67.226-4.299-67.5425-4.55481-67.8985-4.75745-68.28-4.899-68.6993-5.06367-69.1583-5.21967-69.657-5.367-70.1401-5.50647-70.6029-5.70816-71.034-5.967-71.4581-6.22856-71.8186-6.58147-72.089-7-72.3946-7.51262-72.5424-8.10389-72.514-8.7-72.5289-9.26236-72.3973-9.81893-72.132-10.315-71.8848-10.7599-71.5435-11.1455-71.132-11.445-70.7031-11.7528-70.222-11.9805-69.712-12.117-69.1805-12.2642-68.6315-12.3385-68.08-12.338-67.4539-12.3393-66.8316-12.2417-66.236-12.049-65.6371-11.8539-65.0886-11.5288-64.63-11.097ZM-43.24-5.152-47.762-12.037-45.076-12.037-42.118-7.243-39.126-12.037-36.576-12.037-41.1-5.151-41.1 0-43.24 0ZM-13.422-9.452C-13.646-9.77878-13.963-10.0307-14.332-10.175-14.7134-10.3283-15.1209-10.406-15.532-10.404-15.7755-10.4047-16.0183-10.3762-16.255-10.319-16.479-10.266-16.6919-10.1739-16.884-10.047-17.07-9.92327-17.2241-9.75746-17.334-9.563-17.4516-9.34701-17.5102-9.10385-17.504-8.858-17.5255-8.49527-17.3664-8.14534-17.079-7.923-16.7563-7.68651-16.4014-7.49759-16.025-7.362-15.6057-7.20333-15.1467-7.05033-14.648-6.903-14.1635-6.76197-13.7003-6.55611-13.271-6.291-12.8479-6.02671-12.4881-5.6727-12.217-5.254-11.9106-4.73551-11.7628-4.13857-11.792-3.537-11.7785-2.95297-11.9007-2.37378-12.149-1.845-12.3749-1.37775-12.7034-0.967553-13.11-0.645-13.527-0.320067-14.0021-0.077729-14.51 0.0690003-15.0565 0.229636-15.6234 0.309811-16.193 0.307-16.929 0.309094-17.6596 0.182522-18.352-0.0669997-19.0484-0.319894-19.6646-0.754192-20.137-1.325L-18.522-2.889C-18.2657-2.49592-17.9114-2.17642-17.494-1.962-17.0774-1.74294-16.6137-1.62897-16.143-1.63-15.8903-1.62981-15.6388-1.66345-15.395-1.73-15.1533-1.79457-14.9236-1.89791-14.715-2.036-14.5136-2.16955-14.345-2.34699-14.222-2.555-14.0947-2.77435-14.03-3.02443-14.035-3.278-14.0118-3.66535-14.1686-4.04175-14.46-4.298-14.7765-4.55381-15.1325-4.75645-15.514-4.898-15.9333-5.06267-16.3923-5.21867-16.891-5.366-17.3741-5.50547-17.8369-5.70716-18.268-5.966-18.6915-6.22808-19.0513-6.58132-19.321-7-19.6266-7.51262-19.7744-8.10389-19.746-8.7-19.7609-9.26236-19.6293-9.81893-19.364-10.315-19.1168-10.7599-18.7755-11.1455-18.364-11.445-17.9351-11.7528-17.454-11.9805-16.944-12.117-16.4125-12.2642-15.8635-12.3385-15.312-12.338-14.6856-12.3394-14.063-12.2418-13.467-12.049-12.8681-11.8539-12.3197-11.5288-11.861-11.097ZM9.052-10.1 5.363-10.1 5.363-12.038 14.883-12.038 14.883-10.1 11.194-10.1 11.194 0 9.052 0ZM32.5-12.036 40.473-12.036 40.473-10.1 34.637-10.1 34.637-7.14 40.162-7.14 40.162-5.2 34.637-5.2 34.637-1.936 40.774-1.936 40.774 0 32.5 0ZM59.088-12.036 62.352-12.036 65.561-3.6 68.808-12.032 72.038-12.032 72.038 0 70 0 70-10 69.966-10 66.309 0 64.809 0 61.157-10 61.123-10 61.123 0 59.083 0Z" id="Path_2084" fill="#9B9A9A" transform="translate(269.905 58.088)"/></g></g></svg>